<?xml version="1.0" encoding="UTF-8" standalone="no"?>
<!-- Created with Inkscape (http://www.inkscape.org/) -->

<svg
   xmlns:dc="http://purl.org/dc/elements/1.1/"
   xmlns:cc="http://creativecommons.org/ns#"
   xmlns:rdf="http://www.w3.org/1999/02/22-rdf-syntax-ns#"
   xmlns:svg="http://www.w3.org/2000/svg"
   xmlns="http://www.w3.org/2000/svg"
   xmlns:sodipodi="http://sodipodi.sourceforge.net/DTD/sodipodi-0.dtd"
   xmlns:inkscape="http://www.inkscape.org/namespaces/inkscape"
   width="1920"
   height="1200"
   viewBox="0 0 1920 1200"
   id="svg2"
   version="1.1"
   inkscape:version="0.91 r13725"
   sodipodi:docname="10_subscription.svg"
   inkscape:export-filename="/home/yoan/Aubrune/Instant_Sphere/UI/UI/version2/ecrans/PNG/ecran_10_subscription/ecran_10.png"
   inkscape:export-xdpi="90"
   inkscape:export-ydpi="90">
  <defs
     id="defs4">
    <marker
       inkscape:stockid="Arrow1Lstart"
       orient="auto"
       refY="0.0"
       refX="0.0"
       id="Arrow1Lstart"
       style="overflow:visible"
       inkscape:isstock="true">
      <path
         id="path4223"
         d="M 0.0,0.0 L 5.0,-5.0 L -12.5,0.0 L 5.0,5.0 L 0.0,0.0 z "
         style="fill-rule:evenodd;stroke:#6e99bf;stroke-width:1pt;stroke-opacity:1;fill:#6e99bf;fill-opacity:1"
         transform="scale(0.8) translate(12.5,0)" />
    </marker>
    <linearGradient
       gradientUnits="userSpaceOnUse"
       id="SVGID_1_"
       x1="256"
       x2="256"
       y1="512"
       y2="-9.094947e-13"
       gradientTransform="matrix(2.7125657,0,0,2.7125657,-4550.1446,-2083.8838)">
      <stop
         offset="0"
         style="stop-color:#E73827"
         id="stop4" />
      <stop
         offset="1"
         style="stop-color:#F85032"
         id="stop6" />
    </linearGradient>
    <linearGradient
       gradientUnits="userSpaceOnUse"
       id="SVGID_1_-3"
       x1="256"
       x2="256"
       y1="512"
       y2="-9.094947e-13"
       gradientTransform="translate(-69.212127,-1297.8411)">
      <stop
         offset="0"
         style="stop-color:#E73827"
         id="stop4-6" />
      <stop
         offset="1"
         style="stop-color:#F85032"
         id="stop6-7" />
    </linearGradient>
    <linearGradient
       gradientUnits="userSpaceOnUse"
       id="SVGID_1_-7"
       x1="256"
       x2="256"
       y1="512"
       y2="-9.094947e-13"
       gradientTransform="translate(0,5.580892)">
      <stop
         offset="0"
         style="stop-color:#FF512F"
         id="stop4-9" />
      <stop
         offset="1"
         style="stop-color:#F09819"
         id="stop6-2" />
    </linearGradient>
    <linearGradient
       gradientUnits="userSpaceOnUse"
       id="SVGID_1_-3-0"
       x1="256"
       x2="256"
       y1="512"
       y2="-9.094947e-13"
       gradientTransform="matrix(0.28345527,0,0,0.28345527,1490.7202,237.64369)">
      <stop
         offset="0"
         style="stop-color:#76B852"
         id="stop4-5" />
      <stop
         offset="1"
         style="stop-color:#8DC26F"
         id="stop6-6" />
    </linearGradient>
    <linearGradient
       gradientUnits="userSpaceOnUse"
       id="SVGID_1_-3-8"
       x1="256"
       x2="256"
       y1="512"
       y2="-9.094947e-13"
       gradientTransform="matrix(0.37396932,0,0,0.37396932,941.40681,-52.858267)">
      <stop
         offset="0"
         style="stop-color:#76B852"
         id="stop4-5-5" />
      <stop
         offset="1"
         style="stop-color:#8DC26F"
         id="stop6-6-1" />
    </linearGradient>
  </defs>
  <sodipodi:namedview
     id="base"
     pagecolor="#ffffff"
     bordercolor="#666666"
     borderopacity="1.0"
     inkscape:pageopacity="0.0"
     inkscape:pageshadow="2"
     inkscape:zoom="0.33567708"
     inkscape:cx="372.05083"
     inkscape:cy="535.34457"
     inkscape:document-units="px"
     inkscape:current-layer="layer1"
     showgrid="false"
     fit-margin-top="0"
     fit-margin-left="0"
     fit-margin-right="0"
     fit-margin-bottom="0"
     units="px"
     inkscape:window-width="1600"
     inkscape:window-height="872"
     inkscape:window-x="1920"
     inkscape:window-y="0"
     inkscape:window-maximized="1" />
  <metadata
     id="metadata7">
    <rdf:RDF>
      <cc:Work
         rdf:about="">
        <dc:format>image/svg+xml</dc:format>
        <dc:type
           rdf:resource="http://purl.org/dc/dcmitype/StillImage" />
        <dc:title />
      </cc:Work>
    </rdf:RDF>
  </metadata>
  <g
     inkscape:label="Calque 1"
     inkscape:groupmode="layer"
     id="layer1"
     transform="translate(-77.142883,559.2092)">
    <path
       style="opacity:0.83999999;fill:#000000;fill-opacity:1"
       d="m 126.59961,42.537109 c -20.93584,0 -37.791016,16.855186 -37.791016,37.791016 l 0,1034.382775 c 0,20.9359 16.855176,37.7911 37.791016,37.7911 l 1666.80079,0 c 20.9358,0 37.791,-37.7911 37.791,-37.7911 l 0,-1034.382775 c 0,0 -16.8552,-37.791016 -37.791,-37.791016 z"
       id="rect4147"
       transform="translate(77.142883,-559.2092)"
       inkscape:connector-curvature="0"
       sodipodi:nodetypes="sssssccss" />
    <flowRoot
       xml:space="preserve"
       id="flowRoot4149-3"
       style="font-style:normal;font-variant:normal;font-weight:normal;font-stretch:normal;font-size:40px;line-height:125%;font-family:'Vintage Avalanche';-inkscape-font-specification:'Vintage Avalanche';text-align:center;letter-spacing:0px;word-spacing:0px;text-anchor:middle;fill:#ffffff;fill-opacity:1;stroke:none;stroke-width:1px;stroke-linecap:butt;stroke-linejoin:miter;stroke-opacity:1"
       transform="translate(313.57208,-376.59244)"><flowRegion
         id="flowRegion4151-78"><rect
           id="rect4153-74"
           width="1268.4127"
           height="391.66135"
           x="85.714287"
           y="28.285713"
           style="font-style:normal;font-variant:normal;font-weight:normal;font-stretch:normal;font-family:'Vintage Avalanche';-inkscape-font-specification:'Vintage Avalanche';text-align:center;text-anchor:middle;fill:#ffffff;fill-opacity:1" /></flowRegion><flowPara
         style="font-style:normal;font-variant:normal;font-weight:300;font-stretch:normal;font-size:81.25px;font-family:roboto;-inkscape-font-specification:'roboto Light';text-align:center;text-anchor:middle;fill:#ffffff;fill-opacity:1"
         id="flowPara4230">Borne en attente d'enregistrement auprès du serveur ...</flowPara></flowRoot>    <g
       id="g4554"
       transform="translate(-2.6155276e-4,16.162388)">
      <flowRoot
         style="font-style:normal;font-variant:normal;font-weight:normal;font-stretch:normal;font-size:40px;line-height:125%;font-family:'Vintage Avalanche';-inkscape-font-specification:'Vintage Avalanche';text-align:start;letter-spacing:0px;word-spacing:0px;text-anchor:start;fill:#ffffff;fill-opacity:1;stroke:none;stroke-width:1px;stroke-linecap:butt;stroke-linejoin:miter;stroke-opacity:1"
         id="flowRoot4149-8"
         xml:space="preserve"
         transform="translate(450.24682,346.10049)"><flowRegion
           id="flowRegion4151-7"><rect
             style="font-style:normal;font-variant:normal;font-weight:normal;font-stretch:normal;font-family:'Vintage Avalanche';-inkscape-font-specification:'Vintage Avalanche';text-align:start;text-anchor:start;fill:#ffffff"
             y="28.285713"
             x="85.714287"
             height="156.93979"
             width="600.61932"
             id="rect4153-0" /></flowRegion><flowPara
           style="font-style:normal;font-variant:normal;font-weight:300;font-stretch:normal;font-size:60px;font-family:roboto;-inkscape-font-specification:'roboto Light';text-align:start;text-anchor:start;fill:#ffffff"
           id="flowPara4159-8">Insta<flowSpan
   id="flowSpan4204"
   style="text-align:start;text-anchor:start;fill:#ffffff">nt Sphere</flowSpan></flowPara><flowPara
           id="flowPara4202"
           style="font-style:normal;font-variant:normal;font-weight:300;font-stretch:normal;font-size:60px;font-family:roboto;-inkscape-font-specification:'roboto Light';text-align:start;text-anchor:start;fill:#ffffff"><flowSpan
   id="flowSpan4206"
   style="text-align:start;text-anchor:start;fill:#ffffff">Vos souve</flowSpan>nirs à 360°</flowPara></flowRoot>      <g
         transform="matrix(0.50339885,0,0,0.50339885,170.77059,270.20675)"
         id="layer1-4"
         inkscape:label="Calque 1">
        <g
           transform="translate(142.49934,371.46412)"
           id="g3352" />
        <g
           transform="translate(142.49934,371.46412)"
           id="g3356" />
        <g
           transform="translate(142.49934,371.46412)"
           id="g3360" />
        <g
           transform="translate(142.49934,371.46412)"
           id="g3364" />
        <g
           transform="translate(142.49934,371.46412)"
           id="g3368" />
        <path
           sodipodi:nodetypes="scsccccsscsssssscsscccccsssscccccccccscccscccccss"
           inkscape:connector-curvature="0"
           id="path3414"
           d="m 374.38672,154.14062 c -11.1336,-0.104 -22.45413,0.006 -33.92383,0.33204 -116.55202,3.31602 -207.79798,31.29106 -226.59375,69.4707 l -3.36719,6.83984 0,119.54297 0,119.54102 3.38086,6.86914 c 3.99269,8.11032 13.47869,18.1479 23.11914,24.46289 15.28096,10.00982 40.07132,20.07571 68,27.61133 6.875,1.85499 13.2875,3.40416 14.25,3.44336 1.64874,0.0671 1.75,-3.54124 1.75,-62.36133 0,-58.60122 0.10739,-62.4631 1.75,-62.93555 0.9625,-0.27683 6.475,-1.42642 12.25,-2.55469 80.14932,-15.65878 181.85068,-15.65878 262,0 5.775,1.12827 11.2875,2.27786 12.25,2.55469 1.64261,0.47245 1.75,4.33433 1.75,62.93555 0,49.28111 0.26331,62.43169 1.25,62.42969 2.72614,-0.007 28.00845,-7.14942 40.75,-11.51172 14.9739,-5.12658 32.0798,-13.11306 42,-19.61133 9.6405,-6.31499 19.12449,-16.35257 23.11719,-24.46289 l 3.38281,-6.86914 0,-119.54102 0,-119.54297 -3.23633,-6.57031 c -7.376,-14.98279 -23.45233,-27.44015 -49.39843,-38.27344 -47.70527,-19.91843 -116.54528,-31.07078 -194.48047,-31.79883 z m -8.38477,17.22461 c 18.6912,0 37.3824,0.33575 48,1.00782 92.38666,5.84783 167.7169,28.20746 186.5,55.35742 l 4,5.78125 0.35157,11.83008 0.35351,11.82812 -4.35351,2.75196 c -15.6582,9.89851 -44.85497,20.90838 -74.10157,27.94335 l -15.75,3.78907 0,43.33593 0,55.08204 c -17.95562,-3.96544 -37.45196,-7.27407 -58.5,-9.67188 -79.89918,-9.1022 -165.64404,-4.94646 -231.5,9.64649 l 0,-55.09766 0,-43.37695 -9.75,-2.20313 c -31.94134,-7.21744 -63.08426,-18.47902 -78.66406,-28.44531 l -5.79297,-3.70703 0.35352,-11.85157 0.35351,-11.85351 4,-5.78125 c 18.7921,-27.16291 94.06928,-49.5068 186.5,-55.35742 10.61761,-0.67207 29.30881,-1.00782 48,-1.00782 z"
           style="fill:#0044aa" />
        <path
           id="path3429"
           d="m 366.04501,230.01033 c -26.63367,0 -48.23828,21.60461 -48.23828,48.23828 0,14.67938 6.59466,27.77718 16.97461,36.64844 2.98519,2.55206 2.45115,7.31164 -1.02539,9.13867 -10.64668,5.59126 -19.67535,13.85436 -26.20898,23.89648 -2.16441,3.32537 -7.01672,3.37458 -9.24805,0.0937 -3.46273,-5.09276 -7.87048,-9.49651 -12.9668,-12.94531 -2.9148,-1.97133 -3.28524,-6.12176 -0.76562,-8.57812 7.00441,-6.82721 11.35742,-16.29038 11.35742,-26.86329 0,-20.73441 -16.80833,-37.54101 -37.54297,-37.54101 -19.56153,0 -35.6197,14.96106 -37.375,34.06445 l 0,6.92188 c 0.83737,9.14764 4.96512,17.32112 11.20703,23.40625 2.51799,2.45623 2.14763,6.6048 -0.76562,8.57617 -3.93927,2.66357 -7.44962,5.90205 -10.44141,9.57617 l 0,6.8457 -0.004,0.004 0,38.55274 c 65.85596,-14.59296 151.60082,-18.74869 231.5,-9.64649 21.04804,2.39781 40.54438,5.70644 58.5,9.67188 l 0,-45.42969 c -2.98043,-3.65897 -6.4758,-6.88591 -10.39648,-9.54297 -2.91054,-1.97275 -3.27891,-6.11928 -0.76172,-8.57422 6.06796,-5.91369 10.1495,-13.81808 11.1582,-22.71094 l 0,-8.44726 c -2.12226,-18.72071 -18.00439,-33.26758 -37.29297,-33.26758 -20.73465,0 -37.54296,16.8066 -37.54296,37.54101 0,10.52212 4.34733,19.98808 11.34765,26.82618 2.51592,2.45916 2.1408,6.60814 -0.77539,8.57617 -5.10127,3.4416 -9.51559,7.842 -12.98633,12.93164 -2.23282,3.27253 -7.07567,3.22237 -9.24023,-0.0957 -6.53051,-10.01772 -15.54683,-18.25983 -26.17578,-23.8418 -3.47714,-1.82626 -4.01222,-6.58598 -1.02735,-9.13867 10.37995,-8.87126 16.97461,-21.96906 16.97461,-36.64844 0,-26.63367 -21.60461,-48.23828 -48.23828,-48.23828 z"
           style="fill:#ffc300;fill-opacity:1"
           inkscape:connector-curvature="0" />
        <flowRoot
           transform="matrix(0.81383598,0,0,0.81383598,50.266986,93.125777)"
           style="font-style:normal;font-variant:normal;font-weight:normal;font-stretch:normal;font-size:109.05146027px;line-height:82.99999833%;font-family:'Vintage Avalanche';-inkscape-font-specification:'Vintage Avalanche';letter-spacing:0px;word-spacing:0px;fill:#ffffff;fill-opacity:1;stroke:none;stroke-width:1px;stroke-linecap:butt;stroke-linejoin:miter;stroke-opacity:1"
           id="flowRoot4140"
           xml:space="preserve"><flowRegion
             id="flowRegion4142"><rect
               style="font-style:normal;font-variant:normal;font-weight:normal;font-stretch:normal;font-size:109.05146027px;line-height:82.99999833%;font-family:'Vintage Avalanche';-inkscape-font-specification:'Vintage Avalanche';fill:#ffffff"
               y="406.36221"
               x="223"
               height="256.29987"
               width="388.92743"
               id="rect4144" /></flowRegion><flowPara
             style="font-size:109.05146027px;line-height:82.99999833%;fill:#ffffff"
             id="flowPara4146">INSTANT</flowPara><flowPara
             style="font-size:109.05146027px;line-height:82.99999833%;fill:#ffffff"
             id="flowPara4148">SPHERE</flowPara></flowRoot>      </g>
      <flowRoot
         style="font-style:normal;font-variant:normal;font-weight:normal;font-stretch:normal;font-size:40px;line-height:125%;font-family:'Vintage Avalanche';-inkscape-font-specification:'Vintage Avalanche';text-align:start;letter-spacing:0px;word-spacing:0px;text-anchor:start;fill:#d4aa00;fill-opacity:1;stroke:none;stroke-width:1px;stroke-linecap:butt;stroke-linejoin:miter;stroke-opacity:1"
         id="flowRoot4149-8-3"
         xml:space="preserve"
         transform="translate(1142.7917,425.7474)"><flowRegion
           id="flowRegion4151-7-6"><rect
             style="font-style:normal;font-variant:normal;font-weight:normal;font-stretch:normal;font-family:'Vintage Avalanche';-inkscape-font-specification:'Vintage Avalanche';text-align:start;text-anchor:start;fill:#d4aa00"
             y="28.285713"
             x="85.714287"
             height="158.36835"
             width="686.33362"
             id="rect4153-0-7" /></flowRegion><flowPara
           id="flowPara4202-5"
           style="font-style:normal;font-variant:normal;font-weight:300;font-stretch:normal;font-size:57.5px;font-family:roboto;-inkscape-font-specification:'roboto Light';text-align:start;text-anchor:start;fill:#d4aa00">www.instant-sphere.com</flowPara></flowRoot>    </g>
  </g>
</svg>
